<svg width="221" height="41" viewBox="0 0 221 41" fill="none" xmlns="http://www.w3.org/2000/svg">
<path d="M52.6849 12.2367V8.65755C52.6849 7.28374 51.6365 6.59684 50.6242 6.59684C49.612 6.59684 48.5274 7.28374 48.5274 8.65755V12.2367H47.0451C46.1774 12.2367 45.4182 12.9959 45.4182 13.8636C45.4182 14.7674 46.1774 15.4904 47.0451 15.4904H48.5274V29.1201C48.5274 30.4939 49.612 31.2169 50.6242 31.2169C51.6365 31.2169 52.6849 30.4939 52.6849 29.1201V15.4904H55.3964C56.2641 15.4904 57.0233 14.7674 57.0233 13.8636C57.0233 12.9597 56.2641 12.2367 55.3964 12.2367H52.6849ZM78.1761 20.588C77.5976 15.2374 73.9462 11.839 68.6679 11.839C63.0642 11.839 59.0874 16.0689 59.0874 21.6364C59.0874 27.4932 63.245 31.3615 68.9571 31.3615C72.3916 31.3615 74.9223 29.6985 76.4769 27.7824C76.8023 27.3847 76.9469 26.987 76.9469 26.5894C76.9469 25.6132 76.0792 24.7456 75.1754 24.7456C74.7054 24.7456 74.1993 24.9625 73.8016 25.5048C72.7532 26.9147 71.2347 27.927 68.9933 27.927C65.8841 27.927 63.2811 25.8301 63.1727 22.7933H76.1515C77.5615 22.7933 78.3207 22.0341 78.1761 20.588ZM68.6679 15.2012C71.777 15.2012 73.9462 17.2619 74.1631 20.0095H63.2088C63.4257 17.2258 65.6672 15.2012 68.6679 15.2012ZM98.7078 12.0921C97.6594 12.0921 96.6109 12.779 96.6109 14.1528V15.635C95.201 13.2128 92.5256 11.839 89.7419 11.839C83.9936 11.839 80.306 15.9966 80.306 21.5641C80.306 26.987 83.849 31.3615 89.525 31.3615C92.9233 31.3615 95.5625 29.7347 96.6109 27.1678V29.1562C96.6109 30.4939 97.6594 31.2169 98.7078 31.2169C99.7562 31.2169 100.768 30.4939 100.768 29.1562V14.1528C100.768 12.779 99.7201 12.0921 98.7078 12.0921ZM90.5734 27.6378C87.0304 27.6378 84.4997 25.1432 84.4997 21.6003C84.4997 18.0934 87.0304 15.5989 90.5734 15.5989C94.0802 15.5989 96.5748 18.2019 96.5748 21.6003C96.5748 25.0348 94.0802 27.6378 90.5734 27.6378ZM125.468 11.839C122.684 11.839 120.696 13.032 119.611 15.0566C118.563 12.8151 116.575 11.839 114.333 11.839C112.019 11.839 110.248 12.8874 109.272 14.7674V14.0443C109.272 12.7067 108.223 12.0559 107.211 12.0559C106.163 12.0559 105.078 12.7428 105.078 14.1166V29.1201C105.078 30.4577 106.126 31.1808 107.175 31.1808C108.223 31.1808 109.272 30.4577 109.272 29.1201V20.2626C109.308 17.1173 110.79 15.4181 113.104 15.4181C114.912 15.4181 116.647 16.5027 116.647 20.0457V29.0477C116.647 30.4577 117.695 31.2169 118.744 31.2169C119.792 31.2169 120.841 30.4577 120.841 29.0477V20.2626C120.841 17.1535 122.359 15.4181 124.673 15.4181C126.481 15.4181 128.216 16.5027 128.216 20.0457V29.0477C128.216 30.4577 129.264 31.2169 130.313 31.2169C131.361 31.2169 132.41 30.4577 132.41 29.0477V19.3949C132.41 14.1166 129.12 11.839 125.468 11.839Z" fill="#363636"/>
<path d="M153.855 12.0559C152.807 12.0559 151.758 12.779 151.758 14.2251V15.635C150.348 13.2128 147.673 11.839 144.889 11.839C139.141 11.839 135.453 15.9966 135.453 21.5641C135.453 26.987 138.996 31.3615 144.672 31.3615C148.071 31.3615 150.71 29.7347 151.758 27.1678V29.1924C151.758 33.7476 149.553 36.2422 145.251 36.2422C141.888 36.2422 140.117 34.7237 138.96 34.7237C137.948 34.7237 137.333 35.4468 137.333 36.2783C137.333 36.9291 137.695 37.616 138.49 38.086C140.225 39.0982 142.865 39.8574 145.54 39.8574C151.939 39.8574 155.88 35.8806 155.88 29.1924V14.1166C155.88 12.7428 154.867 12.0559 153.855 12.0559ZM145.721 27.6378C142.178 27.6378 139.647 25.1432 139.647 21.6003C139.647 18.0934 142.178 15.5989 145.721 15.5989C149.227 15.5989 151.722 18.2019 151.722 21.6003C151.722 25.0348 149.227 27.6378 145.721 27.6378ZM178.302 20.588C177.724 15.2374 174.073 11.839 168.794 11.839C163.191 11.839 159.214 16.0689 159.214 21.6364C159.214 27.4932 163.371 31.3615 169.084 31.3615C172.518 31.3615 175.049 29.6985 176.603 27.7824C176.929 27.3847 177.073 26.987 177.073 26.5894C177.073 25.6132 176.206 24.7456 175.302 24.7456C174.832 24.7456 174.326 24.9625 173.928 25.5048C172.88 26.9147 171.361 27.927 169.12 27.927C166.011 27.927 163.408 25.8301 163.299 22.7933H176.278C177.688 22.7933 178.447 22.0341 178.302 20.588ZM168.794 15.2012C171.903 15.2012 174.073 17.2619 174.29 20.0095H163.335C163.552 17.2258 165.794 15.2012 168.794 15.2012ZM183.717 9.88674C185.055 9.88674 186.139 8.80216 186.139 7.46451C186.139 6.12685 185.055 5.00611 183.717 5.00611C182.38 5.00611 181.259 6.0907 181.259 7.46451C181.259 8.80216 182.38 9.88674 183.717 9.88674ZM181.62 29.1201C181.62 30.4939 182.705 31.2169 183.717 31.2169C184.729 31.2169 185.778 30.4939 185.778 29.1201V14.1166C185.778 12.7428 184.729 12.0559 183.717 12.0559C182.669 12.0559 181.62 12.7428 181.62 14.1166V29.1201ZM197.072 31.3615C201.555 31.3615 204.736 29.337 204.736 25.6132C204.736 18.6357 193.493 20.8049 193.493 17.1173C193.493 15.8158 194.903 15.0204 196.602 15.0204C198.157 15.0204 199.458 15.7435 200.543 16.9365C201.157 17.6235 201.772 17.8765 202.314 17.8765C203.218 17.8765 203.905 17.0812 203.905 16.1412C203.905 15.6712 203.76 15.1289 203.363 14.6589C202.025 12.9597 199.35 11.8752 196.638 11.8752C192.698 11.8752 189.48 13.9359 189.48 17.4788C189.48 24.131 200.579 22.1426 200.579 25.8663C200.579 27.2763 199.205 28.1078 197.108 28.1078C195.12 28.1078 193.854 27.3124 192.842 25.794C192.372 25.0709 191.794 24.7817 191.215 24.7817C190.203 24.7817 189.263 25.6855 189.263 26.7701C189.263 27.204 189.408 27.6378 189.733 28.1078C191.179 30.1323 193.601 31.3615 197.072 31.3615ZM213.925 12.2367V8.65755C213.925 7.28374 212.877 6.59684 211.864 6.59684C210.852 6.59684 209.768 7.28374 209.768 8.65755V12.2367H208.285C207.418 12.2367 206.658 12.9959 206.658 13.8636C206.658 14.7674 207.418 15.4904 208.285 15.4904H209.768V29.1201C209.768 30.4939 210.852 31.2169 211.864 31.2169C212.877 31.2169 213.925 30.4939 213.925 29.1201V15.4904H216.637C217.504 15.4904 218.264 14.7674 218.264 13.8636C218.264 12.9597 217.504 12.2367 216.637 12.2367H213.925Z" fill="#03A473"/>
<rect y="11.4269" width="5.04364" height="11.7685" rx="2.52182" fill="#363636"/>
<rect x="26.8992" y="8.90512" width="5.04364" height="15.9715" rx="2.52182" fill="#363636"/>
<rect x="6.7244" y="5.03812" width="5.04364" height="26.0588" rx="2.52182" fill="#03A473"/>
<rect x="13.4499" y="1.17142" width="5.04364" height="26.0588" rx="2.52182" fill="#363636"/>
<rect x="20.1743" y="11.4269" width="5.04364" height="26.0588" rx="2.52182" fill="#03A473"/>
</svg>
