<svg width="315" height="132" viewBox="0 0 315 132" fill="none" xmlns="http://www.w3.org/2000/svg">
<g id="logo">
<path id="Teamgeist" d="M94.276 34.938V38.342H85.536V67H81.35V38.342H72.564V34.938H94.276ZM122.429 53.43C122.429 54.2273 122.383 55.0707 122.291 55.96H102.143C102.296 58.444 103.139 60.3913 104.673 61.802C106.237 63.182 108.123 63.872 110.331 63.872C112.14 63.872 113.643 63.458 114.839 62.63C116.065 61.7713 116.924 60.6367 117.415 59.226H121.923C121.248 61.6487 119.899 63.6267 117.875 65.16C115.851 66.6627 113.336 67.414 110.331 67.414C107.939 67.414 105.792 66.8773 103.891 65.804C102.02 64.7307 100.548 63.2127 99.4747 61.25C98.4014 59.2567 97.8647 56.9567 97.8647 54.35C97.8647 51.7433 98.3861 49.4587 99.4287 47.496C100.471 45.5333 101.928 44.0307 103.799 42.988C105.7 41.9147 107.877 41.378 110.331 41.378C112.723 41.378 114.839 41.8993 116.679 42.942C118.519 43.9847 119.929 45.426 120.911 47.266C121.923 49.0753 122.429 51.13 122.429 53.43ZM118.105 52.556C118.105 50.9613 117.752 49.5967 117.047 48.462C116.341 47.2967 115.375 46.4227 114.149 45.84C112.953 45.2267 111.619 44.92 110.147 44.92C108.031 44.92 106.221 45.5947 104.719 46.944C103.247 48.2933 102.403 50.164 102.189 52.556H118.105ZM126.39 54.304C126.39 51.728 126.911 49.474 127.954 47.542C128.997 45.5793 130.423 44.0613 132.232 42.988C134.072 41.9147 136.111 41.378 138.35 41.378C140.558 41.378 142.475 41.8533 144.1 42.804C145.725 43.7547 146.937 44.9507 147.734 46.392V41.792H151.966V67H147.734V62.308C146.906 63.78 145.664 65.0067 144.008 65.988C142.383 66.9387 140.481 67.414 138.304 67.414C136.065 67.414 134.041 66.862 132.232 65.758C130.423 64.654 128.997 63.1053 127.954 61.112C126.911 59.1187 126.39 56.8493 126.39 54.304ZM147.734 54.35C147.734 52.4487 147.351 50.7927 146.584 49.382C145.817 47.9713 144.775 46.898 143.456 46.162C142.168 45.3953 140.742 45.012 139.178 45.012C137.614 45.012 136.188 45.38 134.9 46.116C133.612 46.852 132.585 47.9253 131.818 49.336C131.051 50.7467 130.668 52.4027 130.668 54.304C130.668 56.236 131.051 57.9227 131.818 59.364C132.585 60.7747 133.612 61.8633 134.9 62.63C136.188 63.366 137.614 63.734 139.178 63.734C140.742 63.734 142.168 63.366 143.456 62.63C144.775 61.8633 145.817 60.7747 146.584 59.364C147.351 57.9227 147.734 56.2513 147.734 54.35ZM189.354 41.332C191.317 41.332 193.065 41.746 194.598 42.574C196.131 43.3713 197.343 44.5827 198.232 46.208C199.121 47.8333 199.566 49.8113 199.566 52.142V67H195.426V52.74C195.426 50.2253 194.797 48.3087 193.54 46.99C192.313 45.6407 190.642 44.966 188.526 44.966C186.349 44.966 184.616 45.6713 183.328 47.082C182.04 48.462 181.396 50.4707 181.396 53.108V67H177.256V52.74C177.256 50.2253 176.627 48.3087 175.37 46.99C174.143 45.6407 172.472 44.966 170.356 44.966C168.179 44.966 166.446 45.6713 165.158 47.082C163.87 48.462 163.226 50.4707 163.226 53.108V67H159.04V41.792H163.226V45.426C164.054 44.1073 165.158 43.0953 166.538 42.39C167.949 41.6847 169.497 41.332 171.184 41.332C173.3 41.332 175.171 41.8073 176.796 42.758C178.421 43.7087 179.633 45.104 180.43 46.944C181.135 45.1653 182.301 43.7853 183.926 42.804C185.551 41.8227 187.361 41.332 189.354 41.332ZM216.829 41.378C219.006 41.378 220.907 41.8533 222.533 42.804C224.189 43.7547 225.415 44.9507 226.213 46.392V41.792H230.445V67.552C230.445 69.852 229.954 71.8913 228.973 73.67C227.991 75.4793 226.581 76.89 224.741 77.902C222.931 78.914 220.815 79.42 218.393 79.42C215.081 79.42 212.321 78.638 210.113 77.074C207.905 75.51 206.601 73.3787 206.203 70.68H210.343C210.803 72.2133 211.753 73.44 213.195 74.36C214.636 75.3107 216.369 75.786 218.393 75.786C220.693 75.786 222.563 75.0653 224.005 73.624C225.477 72.1827 226.213 70.1587 226.213 67.552V62.262C225.385 63.734 224.158 64.9607 222.533 65.942C220.907 66.9233 219.006 67.414 216.829 67.414C214.59 67.414 212.551 66.862 210.711 65.758C208.901 64.654 207.475 63.1053 206.433 61.112C205.39 59.1187 204.869 56.8493 204.869 54.304C204.869 51.728 205.39 49.474 206.433 47.542C207.475 45.5793 208.901 44.0613 210.711 42.988C212.551 41.9147 214.59 41.378 216.829 41.378ZM226.213 54.35C226.213 52.4487 225.829 50.7927 225.063 49.382C224.296 47.9713 223.253 46.898 221.935 46.162C220.647 45.3953 219.221 45.012 217.657 45.012C216.093 45.012 214.667 45.38 213.379 46.116C212.091 46.852 211.063 47.9253 210.297 49.336C209.53 50.7467 209.147 52.4027 209.147 54.304C209.147 56.236 209.53 57.9227 210.297 59.364C211.063 60.7747 212.091 61.8633 213.379 62.63C214.667 63.366 216.093 63.734 217.657 63.734C219.221 63.734 220.647 63.366 221.935 62.63C223.253 61.8633 224.296 60.7747 225.063 59.364C225.829 57.9227 226.213 56.2513 226.213 54.35ZM260.519 53.43C260.519 54.2273 260.473 55.0707 260.381 55.96H240.233C240.386 58.444 241.229 60.3913 242.763 61.802C244.327 63.182 246.213 63.872 248.421 63.872C250.23 63.872 251.733 63.458 252.929 62.63C254.155 61.7713 255.014 60.6367 255.505 59.226H260.013C259.338 61.6487 257.989 63.6267 255.965 65.16C253.941 66.6627 251.426 67.414 248.421 67.414C246.029 67.414 243.882 66.8773 241.981 65.804C240.11 64.7307 238.638 63.2127 237.565 61.25C236.491 59.2567 235.955 56.9567 235.955 54.35C235.955 51.7433 236.476 49.4587 237.519 47.496C238.561 45.5333 240.018 44.0307 241.889 42.988C243.79 41.9147 245.967 41.378 248.421 41.378C250.813 41.378 252.929 41.8993 254.769 42.942C256.609 43.9847 258.019 45.426 259.001 47.266C260.013 49.0753 260.519 51.13 260.519 53.43ZM256.195 52.556C256.195 50.9613 255.842 49.5967 255.137 48.462C254.431 47.2967 253.465 46.4227 252.239 45.84C251.043 45.2267 249.709 44.92 248.237 44.92C246.121 44.92 244.311 45.5947 242.809 46.944C241.337 48.2933 240.493 50.164 240.279 52.556H256.195ZM268.206 37.698C267.409 37.698 266.734 37.422 266.182 36.87C265.63 36.318 265.354 35.6433 265.354 34.846C265.354 34.0487 265.63 33.374 266.182 32.822C266.734 32.27 267.409 31.994 268.206 31.994C268.973 31.994 269.617 32.27 270.138 32.822C270.69 33.374 270.966 34.0487 270.966 34.846C270.966 35.6433 270.69 36.318 270.138 36.87C269.617 37.422 268.973 37.698 268.206 37.698ZM270.23 41.792V67H266.044V41.792H270.23ZM286.288 67.414C284.356 67.414 282.624 67.092 281.09 66.448C279.557 65.7733 278.346 64.8533 277.456 63.688C276.567 62.492 276.076 61.1273 275.984 59.594H280.308C280.431 60.8513 281.014 61.8787 282.056 62.676C283.13 63.4733 284.525 63.872 286.242 63.872C287.837 63.872 289.094 63.5193 290.014 62.814C290.934 62.1087 291.394 61.2193 291.394 60.146C291.394 59.042 290.904 58.2293 289.922 57.708C288.941 57.156 287.423 56.6193 285.368 56.098C283.498 55.6073 281.964 55.1167 280.768 54.626C279.603 54.1047 278.591 53.3533 277.732 52.372C276.904 51.36 276.49 50.0413 276.49 48.416C276.49 47.128 276.874 45.9473 277.64 44.874C278.407 43.8007 279.496 42.9573 280.906 42.344C282.317 41.7 283.927 41.378 285.736 41.378C288.527 41.378 290.781 42.0833 292.498 43.494C294.216 44.9047 295.136 46.8367 295.258 49.29H291.072C290.98 47.9713 290.444 46.9133 289.462 46.116C288.512 45.3187 287.224 44.92 285.598 44.92C284.096 44.92 282.9 45.242 282.01 45.886C281.121 46.53 280.676 47.3733 280.676 48.416C280.676 49.244 280.937 49.934 281.458 50.486C282.01 51.0073 282.685 51.4367 283.482 51.774C284.31 52.0807 285.445 52.4333 286.886 52.832C288.696 53.3227 290.168 53.8133 291.302 54.304C292.437 54.764 293.403 55.4693 294.2 56.42C295.028 57.3707 295.458 58.6127 295.488 60.146C295.488 61.526 295.105 62.768 294.338 63.872C293.572 64.976 292.483 65.85 291.072 66.494C289.692 67.1073 288.098 67.414 286.288 67.414ZM306.503 45.242V60.1C306.503 61.3267 306.764 62.2007 307.285 62.722C307.807 63.2127 308.711 63.458 309.999 63.458H313.081V67H309.309C306.979 67 305.231 66.4633 304.065 65.39C302.9 64.3167 302.317 62.5533 302.317 60.1V45.242H299.051V41.792H302.317V35.444H306.503V41.792H313.081V45.242H306.503Z" fill="#03A473"/>
<path id="Union" fill-rule="evenodd" clip-rule="evenodd" d="M70.5278 3.71199C90.2469 3.71199 107.803 12.9746 119.081 27.3863C107.155 10.8008 87.6899 0 65.7022 0C29.4159 0 0 29.4159 0 65.7022C0 101.989 29.4159 131.404 65.7022 131.404C91.3053 131.404 113.488 116.76 124.33 95.39C113.787 114.221 93.6439 126.95 70.5278 126.95C36.4966 126.95 8.90877 99.3623 8.90877 65.331C8.90877 31.2998 36.4966 3.71199 70.5278 3.71199ZM12.5382 66H21.5382V63H12.5382V66ZM61.5382 119V110H64.5382V119H61.5382ZM61.5382 11V20H64.5382V11H61.5382Z" fill="black"/>
<path id="Union_2" fill-rule="evenodd" clip-rule="evenodd" d="M67.2853 71.9937L63.5 21L59.6029 73.5H59.75V82.1962L266 77L67.2853 71.9937Z" fill="#363636"/>
</g>
</svg>
