<svg xmlns="http://www.w3.org/2000/svg" xmlns:xlink="http://www.w3.org/1999/xlink" viewBox="0 0 471.78 678.39"><defs><style>.cls-1{fill:none;}.cls-2{isolation:isolate;}.cls-3{clip-path:url(#clip-path);}.cls-4{opacity:0.5;mix-blend-mode:multiply;fill:url(#linear-gradient);}.cls-5{fill:#05a473;}.cls-6{fill:#22445d;}.cls-7{fill:url(#linear-gradient-2);}.cls-8{fill:#41ab8a;}.cls-9{fill:#162e41;}.cls-10{fill:#363636;}.cls-11{fill:#0d2333;}.cls-12{fill:#282828;}</style><clipPath id="clip-path"><rect class="cls-1" width="471.78" height="727.12"/></clipPath><linearGradient id="linear-gradient" x1="-7788.13" y1="-11795.96" x2="-7602.85" y2="-11663.19" gradientTransform="translate(-7288.29 -11686.38) rotate(180)" gradientUnits="userSpaceOnUse"><stop offset="0.37" stop-color="#0d2333"/><stop offset="0.4" stop-color="#394b58"/><stop offset="0.43" stop-color="#62707b"/><stop offset="0.46" stop-color="#88939b"/><stop offset="0.49" stop-color="#a8b0b6"/><stop offset="0.53" stop-color="#c4c9cd"/><stop offset="0.57" stop-color="#dadddf"/><stop offset="0.62" stop-color="#ebecee"/><stop offset="0.68" stop-color="#f6f7f8"/><stop offset="0.76" stop-color="#fdfdfd"/><stop offset="1" stop-color="#fff"/></linearGradient><linearGradient id="linear-gradient-2" x1="-7936.99" y1="-11816.12" x2="-7778.54" y2="-11974.58" gradientTransform="translate(-7288.29 -11686.38) rotate(180)" gradientUnits="userSpaceOnUse"><stop offset="0.17" stop-color="#0d2333"/><stop offset="0.2" stop-color="#14343e"/><stop offset="0.27" stop-color="#215855"/><stop offset="0.34" stop-color="#2d7668"/><stop offset="0.41" stop-color="#368e77"/><stop offset="0.49" stop-color="#3c9e82"/><stop offset="0.58" stop-color="#40a888"/><stop offset="0.69" stop-color="#41ab8a"/></linearGradient></defs><title>90577 [Converted]</title><g class="cls-2"><g id="object"><g class="cls-3"><polygon class="cls-4" points="292.64 -0.47 309.07 20.74 382.09 114.97 471.54 -0.47 292.64 -0.47"/><polygon class="cls-5" points="45.36 79.27 152.48 79.27 152.49 79.26 98.92 10.14 98.91 10.14 45.35 79.26 45.36 79.27"/><polygon class="cls-1" points="739.95 345.89 739.95 345.89 829.4 461.33 829.39 461.34 650.49 461.34 650.48 461.33 650.47 461.34 471.57 461.34 471.56 461.33 471.57 461.34 650.47 461.34 650.48 461.33 650.49 461.34 829.39 461.34 829.4 461.33 739.95 345.89"/><polygon class="cls-1" points="267.65 31.77 203.18 114.97 203.19 114.98 203.18 114.97 267.65 31.77"/><polygon class="cls-1" points="292.65 -0.47 309.09 20.74 292.65 -0.47 292.65 -0.47"/><polygon class="cls-5" points="561.02 114.97 471.57 -0.47 471.55 -0.47 382.1 114.97 382.1 114.97 382.1 114.97 382.11 114.98 561.01 114.98 561.02 114.97"/><polygon class="cls-6" points="471.57 230.43 561.02 345.88 650.47 230.43 471.57 230.43"/><polygon class="cls-7" points="650.48 230.42 561.03 114.98 561.01 114.98 471.56 230.42 471.57 230.43 650.47 230.43 650.48 230.42"/><polygon class="cls-8" points="561.02 576.78 650.47 461.34 471.57 461.34 561.02 576.78"/><polygon class="cls-9" points="471.57 461.34 471.55 461.34 382.1 576.78 382.11 576.79 561.01 576.79 561.02 576.78 471.57 461.34"/><polygon class="cls-10" points="267.65 31.77 292.63 -0.47 113.73 -0.47 203.18 114.97 267.65 31.77"/><polygon class="cls-6" points="203.18 114.97 203.19 114.98 292.64 230.42 382.09 114.98 382.09 114.97 382.09 114.98 382.11 114.98 382.1 114.97 382.1 114.97 382.1 114.97 309.09 20.74 292.65 -0.47 292.65 -0.47 471.55 -0.47 471.57 -0.47 561.02 114.97 650.47 -0.47 650.49 -0.47 650.48 -0.48 739.93 -115.92 561.03 -115.92 561.03 -115.92 561.02 -115.94 561.01 -115.92 471.56 -0.48 382.11 -115.92 292.67 -0.48 292.65 -0.5 292.64 -0.48 292.63 -0.47 292.63 -0.47 292.63 -0.47 267.65 31.77 203.18 114.97"/><polygon class="cls-10" points="382.11 114.98 382.09 114.98 292.64 230.42 292.65 230.43 471.55 230.43 471.56 230.42 382.11 114.98"/><polygon class="cls-10" points="283.29 363.49 283.29 363.49 314.37 403.61 345.45 363.49 283.29 363.49"/><polygon class="cls-10" points="334.81 602.61 334.81 602.61 383.62 665.6 432.43 602.61 334.81 602.61"/><polygon class="cls-11" points="382.09 576.79 382.11 576.79 382.1 576.78 382.09 576.79"/><polygon class="cls-11" points="203.17 114.98 203.19 114.98 203.18 114.97 203.17 114.98"/><polygon class="cls-11" points="292.63 230.43 292.65 230.43 292.64 230.42 292.63 230.43"/><polygon class="cls-12" points="382.11 345.89 561.01 345.89 561.01 345.89 561.01 345.89 561.03 345.89 561.03 345.89 561.02 345.88 471.57 230.43 471.56 230.42 471.55 230.43 382.1 345.88 382.09 345.89 382.11 345.89 382.11 345.89 382.11 345.89"/><polygon class="cls-11" points="471.56 461.33 471.56 461.33 471.56 461.33 471.55 461.34 471.57 461.34 471.56 461.33"/><polygon class="cls-5" points="471.78 461.22 561.22 345.79 561.23 345.78 561.21 345.78 382.32 345.78 471.78 461.22"/><polygon class="cls-10" points="471.54 461.33 471.52 461.33 382.09 576.75 382.1 576.77 382.09 576.78 560.98 576.78 560.99 576.77 471.54 461.33"/><polygon class="cls-12" points="203.22 114.99 219.65 136.2 292.67 230.43 382.11 114.99 203.22 114.99"/><polygon class="cls-5" points="228.16 82.74 203.18 114.97 382.08 114.97 292.63 -0.46 228.16 82.74"/><polygon class="cls-5" points="354.57 358.64 408.26 289.34 408.27 289.33 408.26 289.33 300.87 289.33 354.57 358.64"/></g></g></g></svg>