<svg xmlns="http://www.w3.org/2000/svg" xmlns:xlink="http://www.w3.org/1999/xlink" viewBox="0 0 468.49 800"><defs><style>.cls-1{fill:none;}.cls-2{isolation:isolate;}.cls-3{clip-path:url(#clip-path);}.cls-4{fill:#05a473;}.cls-5{opacity:0.5;fill:url(#linear-gradient);}.cls-5,.cls-7{mix-blend-mode:multiply;}.cls-6{fill:#363636;}.cls-7{opacity:0.3;fill:url(#White_Black_2);}.cls-8{fill:#24394a;}.cls-9{fill:#162e41;}.cls-10{fill:#22445d;}.cls-11{fill:#0d2333;}.cls-12{fill:#282828;}</style><clipPath id="clip-path"><rect class="cls-1" width="468.49" height="800"/></clipPath><linearGradient id="linear-gradient" x1="-28.76" y1="574.49" x2="156.52" y2="707.26" gradientUnits="userSpaceOnUse"><stop offset="0.37" stop-color="#0d2333"/><stop offset="0.4" stop-color="#394b58"/><stop offset="0.43" stop-color="#62707b"/><stop offset="0.46" stop-color="#88939b"/><stop offset="0.49" stop-color="#a8b0b6"/><stop offset="0.53" stop-color="#c4c9cd"/><stop offset="0.57" stop-color="#dadddf"/><stop offset="0.62" stop-color="#ebecee"/><stop offset="0.68" stop-color="#f6f7f8"/><stop offset="0.76" stop-color="#fdfdfd"/><stop offset="1" stop-color="#fff"/></linearGradient><linearGradient id="White_Black_2" x1="127.19" y1="2582.3" x2="229.64" y2="2684.75" gradientTransform="matrix(1, 0, 0, -1, 0, 3446.52)" gradientUnits="userSpaceOnUse"><stop offset="0" stop-color="#fff"/><stop offset="1" stop-color="#1c1c1b"/></linearGradient></defs><title>90577 [Converted]</title><g class="cls-2"><g id="object"><g class="cls-3"><polygon class="cls-4" points="464.58 663.61 360.63 663.61 360.63 663.61 412.6 730.69 412.61 730.69 464.58 663.61 464.58 663.61"/><polygon class="cls-1" points="203.43 652.3 267.9 569.1 267.89 569.09 267.9 569.1 203.43 652.3"/><polygon class="cls-1" points="88.95 800.01 88.97 799.99 88.94 799.99 88.95 800.01"/><polygon class="cls-1" points="178.43 684.54 161.99 663.33 178.43 684.54 178.43 684.54"/><polygon class="cls-4" points="-89.94 569.1 -0.49 684.54 -0.47 684.54 88.98 569.1 88.98 569.1 88.98 569.1 88.97 569.09 -89.93 569.09 -89.94 569.1"/><polygon class="cls-5" points="178.44 684.54 162 663.33 88.99 569.1 -0.46 684.54 178.44 684.54"/><polygon class="cls-6" points="88.97 799.99 88.97 799.99 88.99 799.99 267.86 799.99 178.43 684.57 178.41 684.55 88.97 799.99"/><polygon class="cls-7" points="88.98 800.01 88.97 799.99 88.97 799.99 88.95 800.01 178.4 915.44 178.43 915.44 267.87 800.01 267.86 799.99 88.99 799.99 88.98 800.01"/><polygon class="cls-8" points="-89.95 800.02 -0.52 915.44 -0.49 915.44 -0.49 915.44 -0.47 915.44 178.4 915.44 88.95 800.01 88.94 799.99 -89.93 799.99 -89.94 800.01 -89.95 799.99 -89.95 799.99 -89.97 800.01 -89.95 800.02"/><polygon class="cls-4" points="88.97 799.99 88.97 799.99 88.97 799.99 -0.48 684.55 -89.93 799.99 88.94 799.99 88.97 799.99"/><polygon class="cls-9" points="-0.49 222.73 -0.47 222.73 88.98 107.29 88.97 107.28 -89.93 107.28 -89.94 107.29 -0.49 222.73"/><polygon class="cls-6" points="203.43 652.3 178.45 684.54 357.35 684.54 267.9 569.1 203.43 652.3"/><polygon class="cls-10" points="267.9 569.1 267.89 569.09 178.44 453.65 88.99 569.09 88.99 569.09 88.99 569.09 88.97 569.09 88.98 569.1 88.98 569.1 88.98 569.1 161.99 663.33 178.43 684.54 178.43 684.54 -0.47 684.54 -0.49 684.54 -89.94 569.1 -179.39 684.54 -179.41 684.54 -179.4 684.55 -268.85 799.99 -89.95 799.99 -89.95 799.99 -89.94 800.01 -89.93 799.99 -0.48 684.55 88.97 799.99 178.41 684.55 178.43 684.57 178.44 684.55 178.45 684.54 178.45 684.54 178.45 684.54 203.43 652.3 267.9 569.1"/><polygon class="cls-6" points="88.97 569.09 88.99 569.09 178.44 453.65 178.43 453.64 -0.47 453.64 -0.48 453.65 88.97 569.09"/><polygon class="cls-11" points="88.99 799.99 88.97 799.99 88.98 800.01 88.99 799.99"/><polygon class="cls-6" points="136.27 81.46 136.27 81.46 87.46 18.46 38.65 81.46 136.27 81.46"/><polygon class="cls-11" points="88.99 107.28 88.97 107.28 88.98 107.29 88.99 107.28"/><polygon class="cls-11" points="267.91 799.99 267.89 799.99 267.9 800.01 267.91 799.99"/><polygon class="cls-11" points="357.36 684.55 357.37 684.54 357.35 684.54 357.36 684.55"/><polygon class="cls-11" points="267.91 569.09 267.89 569.09 267.9 569.1 267.91 569.09"/><polygon class="cls-11" points="178.45 453.64 178.43 453.64 178.44 453.65 178.45 453.64"/><polygon class="cls-12" points="88.97 338.18 -89.93 338.18 -89.93 338.18 -89.93 338.18 -89.95 338.18 -89.95 338.18 -89.94 338.19 -0.49 453.64 -0.48 453.65 -0.47 453.64 88.98 338.19 88.99 338.18 88.97 338.18 88.97 338.18 88.97 338.18"/><polygon class="cls-4" points="-0.52 222.74 -89.96 338.17 -89.97 338.18 -89.95 338.18 88.93 338.18 -0.52 222.74"/><polygon class="cls-12" points="88.99 800 89.01 800 178.45 684.58 178.43 684.56 178.44 684.55 -0.45 684.55 -0.46 684.56 88.99 800"/><polygon class="cls-6" points="-0.46 222.74 -0.44 222.74 88.99 107.32 88.98 107.3 88.99 107.28 -89.9 107.28 -89.91 107.3 -0.46 222.74"/><polygon class="cls-12" points="267.87 569.08 251.43 547.87 178.41 453.64 88.97 569.08 267.87 569.08"/><polygon class="cls-4" points="242.92 601.33 267.9 569.09 89 569.09 178.45 684.53 242.92 601.33"/><polygon class="cls-4" points="116.51 325.43 62.82 394.73 62.81 394.74 62.82 394.74 170.21 394.74 116.51 325.43"/></g></g></g></svg>