<svg xmlns="http://www.w3.org/2000/svg" xmlns:xlink="http://www.w3.org/1999/xlink" viewBox="0 0 469 800"><defs><style>.cls-1{fill:none;}.cls-2{isolation:isolate;}.cls-3{clip-path:url(#clip-path);}.cls-4{fill:#00a571;}.cls-5{opacity:0.5;fill:url(#linear-gradient);}.cls-5,.cls-7{mix-blend-mode:multiply;}.cls-6{fill:#333;}.cls-7{opacity:0.3;fill:url(#White_Black_2);}.cls-8{fill:#0d3649;}.cls-9{fill:#002a40;}.cls-10{fill:#00425e;}.cls-11{fill:#001e30;}.cls-12{fill:#232323;}</style><clipPath id="clip-path"><rect class="cls-1" x="0.37" y="-0.3" width="468.49" height="800" transform="translate(469.24 799.41) rotate(180)"/></clipPath><linearGradient id="linear-gradient" x1="2628.34" y1="574.19" x2="2813.62" y2="706.96" gradientTransform="matrix(-1, 0, 0, 1, 3125.97, 0)" gradientUnits="userSpaceOnUse"><stop offset="0.37" stop-color="#001e30"/><stop offset="0.38" stop-color="#092637"/><stop offset="0.4" stop-color="#374f5d"/><stop offset="0.43" stop-color="#627580"/><stop offset="0.46" stop-color="#88969e"/><stop offset="0.5" stop-color="#a8b3b9"/><stop offset="0.53" stop-color="#c4cbcf"/><stop offset="0.57" stop-color="#dadee1"/><stop offset="0.62" stop-color="#ebedee"/><stop offset="0.68" stop-color="#f6f7f8"/><stop offset="0.77" stop-color="#fdfdfd"/><stop offset="1" stop-color="#fff"/></linearGradient><linearGradient id="White_Black_2" x1="2784.29" y1="2582.59" x2="2886.75" y2="2685.05" gradientTransform="translate(3125.97 3446.52) rotate(180)" gradientUnits="userSpaceOnUse"><stop offset="0" stop-color="#fff"/><stop offset="1" stop-color="#161614"/></linearGradient></defs><title>Untitled-1</title><g class="cls-2"><g id="Layer_1" data-name="Layer 1"><g class="cls-3"><polygon class="cls-4" points="4.28 663.31 108.23 663.31 108.23 663.32 56.26 730.39 56.25 730.39 4.28 663.32 4.28 663.31"/><polygon class="cls-1" points="265.43 652.01 200.96 568.8 200.97 568.79 200.96 568.8 265.43 652.01"/><polygon class="cls-1" points="379.91 799.71 379.9 799.7 379.92 799.7 379.91 799.71"/><polygon class="cls-1" points="290.43 684.24 306.87 663.03 290.43 684.24 290.43 684.24"/><polygon class="cls-4" points="558.8 568.8 469.35 684.24 469.33 684.24 379.88 568.8 379.88 568.8 379.88 568.8 379.89 568.79 558.79 568.79 558.8 568.8"/><polygon class="cls-5" points="290.42 684.24 306.86 663.03 379.87 568.8 469.32 684.24 290.42 684.24"/><polygon class="cls-6" points="379.89 799.69 379.89 799.7 379.87 799.7 201 799.7 290.43 684.28 290.45 684.26 379.89 799.69"/><polygon class="cls-7" points="379.88 799.71 379.89 799.7 379.9 799.7 379.91 799.71 290.46 915.15 290.44 915.15 200.99 799.71 201 799.7 379.87 799.7 379.88 799.71"/><polygon class="cls-8" points="558.81 799.73 469.38 915.15 469.36 915.15 469.35 915.15 469.33 915.15 290.46 915.15 379.91 799.71 379.92 799.7 558.79 799.7 558.8 799.71 558.81 799.7 558.82 799.7 558.83 799.71 558.81 799.73"/><polygon class="cls-4" points="379.9 799.7 379.89 799.7 379.89 799.69 469.34 684.26 558.79 799.7 379.92 799.7 379.9 799.7"/><polygon class="cls-9" points="469.35 222.44 469.33 222.44 379.88 106.99 379.89 106.98 558.79 106.98 558.8 106.99 469.35 222.44"/><polygon class="cls-6" points="265.43 652.01 290.41 684.24 111.51 684.24 200.96 568.8 265.43 652.01"/><polygon class="cls-10" points="200.96 568.8 200.97 568.79 290.42 453.35 379.87 568.79 379.87 568.8 379.87 568.79 379.89 568.79 379.88 568.8 379.88 568.8 379.88 568.8 306.87 663.03 290.43 684.24 290.43 684.24 469.33 684.24 469.35 684.24 558.8 568.8 648.25 684.24 648.27 684.24 648.26 684.26 737.71 799.7 558.82 799.7 558.81 799.7 558.8 799.71 558.79 799.7 469.34 684.26 379.89 799.69 290.45 684.26 290.43 684.28 290.42 684.26 290.41 684.24 290.41 684.24 290.41 684.24 265.43 652.01 200.96 568.8"/><polygon class="cls-6" points="379.89 568.79 379.87 568.79 290.42 453.35 290.43 453.34 469.33 453.34 469.34 453.35 379.89 568.79"/><polygon class="cls-11" points="379.87 799.7 379.89 799.7 379.88 799.71 379.87 799.7"/><polygon class="cls-6" points="332.6 81.16 332.59 81.16 381.4 18.17 430.21 81.16 332.6 81.16"/><polygon class="cls-11" points="379.87 106.98 379.89 106.98 379.88 106.99 379.87 106.98"/><polygon class="cls-11" points="200.95 799.7 200.97 799.7 200.96 799.71 200.95 799.7"/><polygon class="cls-11" points="111.5 684.26 111.49 684.24 111.51 684.24 111.5 684.26"/><polygon class="cls-11" points="200.95 568.79 200.97 568.79 200.96 568.8 200.95 568.79"/><polygon class="cls-11" points="290.41 453.34 290.43 453.34 290.42 453.35 290.41 453.34"/><polygon class="cls-12" points="379.89 337.89 558.79 337.89 558.79 337.89 558.79 337.89 558.81 337.89 558.81 337.89 558.8 337.9 469.35 453.34 469.34 453.35 469.33 453.34 379.88 337.9 379.87 337.89 379.89 337.89 379.89 337.89 379.89 337.89"/><polygon class="cls-4" points="469.38 222.44 558.82 337.87 558.83 337.88 558.81 337.88 379.93 337.88 469.38 222.44"/><polygon class="cls-12" points="379.87 799.7 379.85 799.7 290.42 684.28 290.43 684.27 290.42 684.25 469.31 684.25 469.32 684.27 379.87 799.7"/><polygon class="cls-6" points="469.32 222.44 469.3 222.44 379.87 107.02 379.88 107 379.87 106.99 558.76 106.99 558.77 107 469.32 222.44"/><polygon class="cls-12" points="201 568.79 217.44 547.57 290.45 453.35 379.9 568.79 201 568.79"/><polygon class="cls-4" points="225.94 601.03 200.96 568.8 379.86 568.8 290.41 684.24 225.94 601.03"/><polygon class="cls-4" points="352.35 325.14 406.04 394.43 406.05 394.44 406.04 394.44 298.65 394.44 352.35 325.14"/></g></g></g></svg>