<svg xmlns="http://www.w3.org/2000/svg" xmlns:xlink="http://www.w3.org/1999/xlink" viewBox="0 0 472 727"><defs><style>.cls-1{fill:none;}.cls-2{isolation:isolate;}.cls-3{clip-path:url(#clip-path);}.cls-4{opacity:0.5;mix-blend-mode:multiply;fill:url(#linear-gradient);}.cls-5{fill:#00a571;}.cls-6{fill:#00425e;}.cls-7{fill:url(#linear-gradient-2);}.cls-8{fill:#00ac89;}.cls-9{fill:#002a40;}.cls-10{fill:#333;}.cls-11{fill:#001e30;}.cls-12{fill:#232323;}</style><clipPath id="clip-path"><rect class="cls-1" x="0.15" y="-0.47" width="471.78" height="727.12" transform="translate(472.07 726.17) rotate(-180)"/></clipPath><linearGradient id="linear-gradient" x1="-10930.94" y1="-11872.95" x2="-10745.66" y2="-11740.18" gradientTransform="matrix(1, 0, 0, -1, 10903.02, -11763.84)" gradientUnits="userSpaceOnUse"><stop offset="0.37" stop-color="#001e30"/><stop offset="0.38" stop-color="#092637"/><stop offset="0.4" stop-color="#374f5d"/><stop offset="0.43" stop-color="#627580"/><stop offset="0.46" stop-color="#88969e"/><stop offset="0.5" stop-color="#a8b3b9"/><stop offset="0.53" stop-color="#c4cbcf"/><stop offset="0.57" stop-color="#dadee1"/><stop offset="0.62" stop-color="#ebedee"/><stop offset="0.68" stop-color="#f6f7f8"/><stop offset="0.77" stop-color="#fdfdfd"/><stop offset="1" stop-color="#fff"/></linearGradient><linearGradient id="linear-gradient-2" x1="-11079.8" y1="-11893.11" x2="-10921.35" y2="-12051.56" gradientTransform="matrix(1, 0, 0, -1, 10903.02, -11763.84)" gradientUnits="userSpaceOnUse"><stop offset="0.17" stop-color="#001e30"/><stop offset="0.21" stop-color="#00353e"/><stop offset="0.27" stop-color="#005955"/><stop offset="0.34" stop-color="#007768"/><stop offset="0.42" stop-color="#008f77"/><stop offset="0.5" stop-color="#009f81"/><stop offset="0.58" stop-color="#00a987"/><stop offset="0.69" stop-color="#00ac89"/></linearGradient></defs><title>Untitled-1</title><g class="cls-2"><g id="Layer_1" data-name="Layer 1"><g class="cls-3"><polygon class="cls-4" points="179.28 -0.94 162.85 20.27 89.83 114.5 0.39 -0.94 179.28 -0.94"/><polygon class="cls-5" points="426.56 78.8 319.44 78.8 319.44 78.79 373 9.66 373.01 9.66 426.57 78.79 426.56 78.8"/><polygon class="cls-1" points="-268.02 345.41 -268.02 345.41 -357.48 460.85 -357.47 460.86 -178.56 460.86 -178.56 460.85 -178.55 460.86 0.35 460.86 0.36 460.86 0.35 460.86 -178.55 460.86 -178.56 460.85 -178.56 460.86 -357.47 460.86 -357.48 460.85 -268.02 345.41"/><polygon class="cls-1" points="204.27 31.29 268.74 114.5 268.73 114.51 268.74 114.5 204.27 31.29"/><polygon class="cls-1" points="179.27 -0.94 162.84 20.27 179.27 -0.94 179.27 -0.94"/><polygon class="cls-5" points="-89.1 114.5 0.35 -0.94 0.37 -0.94 89.82 114.5 89.82 114.5 89.82 114.5 89.81 114.51 -89.09 114.51 -89.1 114.5"/><polygon class="cls-6" points="0.35 229.96 -89.1 345.4 -178.55 229.96 0.35 229.96"/><polygon class="cls-7" points="-178.56 229.95 -89.11 114.51 -89.09 114.51 0.36 229.95 0.35 229.96 -178.55 229.96 -178.56 229.95"/><polygon class="cls-8" points="-89.1 576.31 -178.55 460.86 0.35 460.86 -89.1 576.31"/><polygon class="cls-9" points="0.35 460.86 0.37 460.86 89.82 576.31 89.82 576.32 -89.09 576.32 -89.1 576.31 0.35 460.86"/><polygon class="cls-10" points="204.27 31.29 179.29 -0.94 358.19 -0.94 268.74 114.5 204.27 31.29"/><polygon class="cls-6" points="268.74 114.5 268.73 114.51 179.28 229.95 89.83 114.51 89.83 114.5 89.83 114.51 89.81 114.51 89.82 114.5 89.82 114.5 89.82 114.5 162.84 20.27 179.27 -0.94 179.27 -0.94 0.37 -0.94 0.35 -0.94 -89.1 114.5 -178.55 -0.94 -178.57 -0.94 -178.56 -0.96 -268 -116.4 -89.11 -116.4 -89.11 -116.4 -89.1 -116.41 -89.08 -116.4 0.36 -0.96 89.81 -116.39 179.25 -0.96 179.27 -0.98 179.28 -0.96 179.29 -0.94 179.29 -0.94 179.29 -0.94 204.27 31.29 268.74 114.5"/><polygon class="cls-10" points="89.81 114.51 89.83 114.51 179.28 229.95 179.27 229.96 0.37 229.96 0.36 229.95 89.81 114.51"/><polygon class="cls-10" points="188.63 363.02 188.63 363.02 157.55 403.13 126.47 363.02 188.63 363.02"/><polygon class="cls-10" points="137.11 602.14 137.11 602.14 88.3 665.13 39.49 602.14 137.11 602.14"/><polygon class="cls-11" points="89.83 576.32 89.82 576.32 89.82 576.31 89.83 576.32"/><polygon class="cls-11" points="268.75 114.51 268.73 114.51 268.74 114.5 268.75 114.51"/><polygon class="cls-11" points="179.29 229.96 179.27 229.96 179.28 229.95 179.29 229.96"/><polygon class="cls-12" points="89.81 345.41 -89.09 345.41 -89.09 345.41 -89.09 345.41 -89.11 345.41 -89.11 345.41 -89.1 345.4 0.35 229.96 0.36 229.95 0.37 229.96 89.82 345.4 89.83 345.41 89.81 345.41 89.81 345.41 89.81 345.41"/><polygon class="cls-11" points="0.36 460.86 0.36 460.85 0.36 460.85 0.37 460.86 0.35 460.86 0.36 460.86"/><polygon class="cls-5" points="0.14 460.75 -89.3 345.32 -89.31 345.31 -89.29 345.31 89.6 345.31 0.14 460.75"/><polygon class="cls-10" points="0.38 460.86 0.4 460.86 89.83 576.28 89.82 576.3 89.83 576.31 -89.06 576.31 -89.07 576.3 0.38 460.86"/><polygon class="cls-12" points="268.71 114.51 252.27 135.73 179.26 229.95 89.81 114.51 268.71 114.51"/><polygon class="cls-5" points="243.76 82.27 268.74 114.5 89.84 114.5 179.29 -0.94 243.76 82.27"/><polygon class="cls-5" points="117.35 358.16 63.66 288.87 63.66 288.86 63.66 288.86 171.05 288.86 117.35 358.16"/></g></g></g></svg>